<svg xmlns="http://www.w3.org/2000/svg" width="700" height="748" viewBox="0 0 700 748">
<rect width="100%" height="100%" fill="white"/>
<text x="350.0" y="24" text-anchor="middle" font-size="18" font-family="Arial" font-weight="bold">Feature Importance</text>
<rect x="160" y="40" width="30" height="14" fill="#2563eb" rx="4"/>
<text x="152" y="51" text-anchor="end" font-size="12" font-family="Arial">age</text>
<text x="198" y="51" font-size="12" font-family="Arial">+0.10</text>
<rect x="160" y="58" width="180" height="14" fill="#2563eb" rx="4"/>
<text x="152" y="69" text-anchor="end" font-size="12" font-family="Arial">height_cm</text>
<text x="348" y="69" font-size="12" font-family="Arial">+0.62</text>
<rect x="160" y="76" width="70" height="14" fill="#2563eb" rx="4"/>
<text x="152" y="87" text-anchor="end" font-size="12" font-family="Arial">weight_kg</text>
<text x="238" y="87" font-size="12" font-family="Arial">+0.24</text>
<rect x="160" y="94" width="13" height="14" fill="#2563eb" rx="4"/>
<text x="152" y="105" text-anchor="end" font-size="12" font-family="Arial">bmi</text>
<text x="181" y="105" font-size="12" font-family="Arial">+0.05</text>
<rect x="160" y="112" width="34" height="14" fill="#2563eb" rx="4"/>
<text x="152" y="123" text-anchor="end" font-size="12" font-family="Arial">pregnancy_weeks</text>
<text x="202" y="123" font-size="12" font-family="Arial">+0.12</text>
<rect x="160" y="130" width="3" height="14" fill="#2563eb" rx="4"/>
<text x="152" y="141" text-anchor="end" font-size="12" font-family="Arial">gravida</text>
<text x="171" y="141" font-size="12" font-family="Arial">+0.01</text>
<rect x="160" y="148" width="1" height="14" fill="#2563eb" rx="4"/>
<text x="152" y="159" text-anchor="end" font-size="12" font-family="Arial">parity</text>
<text x="169" y="159" font-size="12" font-family="Arial">+0.00</text>
<rect x="160" y="166" width="0" height="14" fill="#2563eb" rx="4"/>
<text x="152" y="177" text-anchor="end" font-size="12" font-family="Arial">previous_c_section</text>
<text x="168" y="177" font-size="12" font-family="Arial">+0.00</text>
<rect x="160" y="184" width="0" height="14" fill="#2563eb" rx="4"/>
<text x="152" y="195" text-anchor="end" font-size="12" font-family="Arial">heavy_vaginal_bleeding</text>
<text x="168" y="195" font-size="12" font-family="Arial">+0.00</text>
<rect x="160" y="202" width="0" height="14" fill="#2563eb" rx="4"/>
<text x="152" y="213" text-anchor="end" font-size="12" font-family="Arial">bleeding_severity</text>
<text x="168" y="213" font-size="12" font-family="Arial">+0.00</text>
<rect x="160" y="220" width="0" height="14" fill="#2563eb" rx="4"/>
<text x="152" y="231" text-anchor="end" font-size="12" font-family="Arial">abdominal_pain</text>
<text x="168" y="231" font-size="12" font-family="Arial">+0.00</text>
<rect x="160" y="238" width="0" height="14" fill="#2563eb" rx="4"/>
<text x="152" y="249" text-anchor="end" font-size="12" font-family="Arial">pain_score</text>
<text x="168" y="249" font-size="12" font-family="Arial">+0.00</text>
<rect x="160" y="256" width="0" height="14" fill="#2563eb" rx="4"/>
<text x="152" y="267" text-anchor="end" font-size="12" font-family="Arial">fetal_movement</text>
<text x="168" y="267" font-size="12" font-family="Arial">+0.00</text>
<rect x="160" y="274" width="0" height="14" fill="#2563eb" rx="4"/>
<text x="152" y="285" text-anchor="end" font-size="12" font-family="Arial">loss_of_consciousness</text>
<text x="168" y="285" font-size="12" font-family="Arial">+0.00</text>
<rect x="160" y="292" width="0" height="14" fill="#2563eb" rx="4"/>
<text x="152" y="303" text-anchor="end" font-size="12" font-family="Arial">convulsions</text>
<text x="168" y="303" font-size="12" font-family="Arial">+0.00</text>
<rect x="160" y="310" width="0" height="14" fill="#2563eb" rx="4"/>
<text x="152" y="321" text-anchor="end" font-size="12" font-family="Arial">headache</text>
<text x="168" y="321" font-size="12" font-family="Arial">+0.00</text>
<rect x="160" y="328" width="0" height="14" fill="#2563eb" rx="4"/>
<text x="152" y="339" text-anchor="end" font-size="12" font-family="Arial">blurred_vision</text>
<text x="168" y="339" font-size="12" font-family="Arial">+0.00</text>
<rect x="160" y="346" width="0" height="14" fill="#2563eb" rx="4"/>
<text x="152" y="357" text-anchor="end" font-size="12" font-family="Arial">difficulty_breathing</text>
<text x="168" y="357" font-size="12" font-family="Arial">+0.00</text>
<rect x="160" y="364" width="0" height="14" fill="#2563eb" rx="4"/>
<text x="152" y="375" text-anchor="end" font-size="12" font-family="Arial">chest_pain</text>
<text x="168" y="375" font-size="12" font-family="Arial">+0.00</text>
<rect x="160" y="382" width="0" height="14" fill="#2563eb" rx="4"/>
<text x="152" y="393" text-anchor="end" font-size="12" font-family="Arial">vomiting</text>
<text x="168" y="393" font-size="12" font-family="Arial">+0.00</text>
<rect x="160" y="400" width="69" height="14" fill="#2563eb" rx="4"/>
<text x="152" y="411" text-anchor="end" font-size="12" font-family="Arial">systolic_bp</text>
<text x="237" y="411" font-size="12" font-family="Arial">+0.24</text>
<rect x="160" y="418" width="46" height="14" fill="#2563eb" rx="4"/>
<text x="152" y="429" text-anchor="end" font-size="12" font-family="Arial">diastolic_bp</text>
<text x="214" y="429" font-size="12" font-family="Arial">+0.16</text>
<rect x="160" y="436" width="45" height="14" fill="#2563eb" rx="4"/>
<text x="152" y="447" text-anchor="end" font-size="12" font-family="Arial">heart_rate</text>
<text x="213" y="447" font-size="12" font-family="Arial">+0.16</text>
<rect x="160" y="454" width="8" height="14" fill="#2563eb" rx="4"/>
<text x="152" y="465" text-anchor="end" font-size="12" font-family="Arial">respiratory_rate</text>
<text x="176" y="465" font-size="12" font-family="Arial">+0.03</text>
<rect x="160" y="472" width="20" height="14" fill="#2563eb" rx="4"/>
<text x="152" y="483" text-anchor="end" font-size="12" font-family="Arial">body_temperature</text>
<text x="188" y="483" font-size="12" font-family="Arial">+0.07</text>
<rect x="160" y="490" width="4" height="14" fill="#2563eb" rx="4"/>
<text x="152" y="501" text-anchor="end" font-size="12" font-family="Arial">spo2</text>
<text x="172" y="501" font-size="12" font-family="Arial">+0.01</text>
<rect x="160" y="508" width="55" height="14" fill="#2563eb" rx="4"/>
<text x="152" y="519" text-anchor="end" font-size="12" font-family="Arial">blood_sugar</text>
<text x="223" y="519" font-size="12" font-family="Arial">+0.19</text>
<rect x="160" y="526" width="0" height="14" fill="#2563eb" rx="4"/>
<text x="152" y="537" text-anchor="end" font-size="12" font-family="Arial">hemoglobin</text>
<text x="168" y="537" font-size="12" font-family="Arial">+0.00</text>
<rect x="160" y="544" width="0" height="14" fill="#2563eb" rx="4"/>
<text x="152" y="555" text-anchor="end" font-size="12" font-family="Arial">urine_protein</text>
<text x="168" y="555" font-size="12" font-family="Arial">+0.00</text>
<rect x="160" y="562" width="0" height="14" fill="#2563eb" rx="4"/>
<text x="152" y="573" text-anchor="end" font-size="12" font-family="Arial">platelet_count</text>
<text x="168" y="573" font-size="12" font-family="Arial">+0.00</text>
<rect x="160" y="580" width="0" height="14" fill="#2563eb" rx="4"/>
<text x="152" y="591" text-anchor="end" font-size="12" font-family="Arial">urine_glucose</text>
<text x="168" y="591" font-size="12" font-family="Arial">+0.00</text>
<rect x="160" y="598" width="0" height="14" fill="#2563eb" rx="4"/>
<text x="152" y="609" text-anchor="end" font-size="12" font-family="Arial">hypertension</text>
<text x="168" y="609" font-size="12" font-family="Arial">+0.00</text>
<rect x="160" y="616" width="0" height="14" fill="#2563eb" rx="4"/>
<text x="152" y="627" text-anchor="end" font-size="12" font-family="Arial">diabetes</text>
<text x="168" y="627" font-size="12" font-family="Arial">+0.00</text>
<rect x="160" y="634" width="0" height="14" fill="#2563eb" rx="4"/>
<text x="152" y="645" text-anchor="end" font-size="12" font-family="Arial">anemia</text>
<text x="168" y="645" font-size="12" font-family="Arial">+0.00</text>
<rect x="160" y="652" width="0" height="14" fill="#2563eb" rx="4"/>
<text x="152" y="663" text-anchor="end" font-size="12" font-family="Arial">heart_disease</text>
<text x="168" y="663" font-size="12" font-family="Arial">+0.00</text>
<rect x="160" y="670" width="0" height="14" fill="#2563eb" rx="4"/>
<text x="152" y="681" text-anchor="end" font-size="12" font-family="Arial">multiple_pregnancy</text>
<text x="168" y="681" font-size="12" font-family="Arial">+0.00</text>
<rect x="160" y="688" width="0" height="14" fill="#2563eb" rx="4"/>
<text x="152" y="699" text-anchor="end" font-size="12" font-family="Arial">previous_preeclampsia</text>
<text x="168" y="699" font-size="12" font-family="Arial">+0.00</text>
<rect x="160" y="706" width="0" height="14" fill="#2563eb" rx="4"/>
<text x="152" y="717" text-anchor="end" font-size="12" font-family="Arial">previous_hemorrhage</text>
<text x="168" y="717" font-size="12" font-family="Arial">+0.00</text>
</svg>