<svg xmlns="http://www.w3.org/2000/svg" width="700" height="360" viewBox="0 0 700 360">
<rect width="100%" height="100%" fill="white"/>
<text x="350.0" y="24" text-anchor="middle" font-size="18" font-family="Arial" font-weight="bold">Waterfall-style Contribution</text>
<rect x="140" y="198" width="28" height="82" fill="#2563eb" rx="4"/>
<text x="154.0" y="344" text-anchor="middle" font-size="12" font-family="Arial">age</text>
<text x="154.0" y="190" text-anchor="middle" font-size="12" font-family="Arial">+0.12</text>
<rect x="188" y="270" width="28" height="10" fill="#2563eb" rx="4"/>
<text x="202.0" y="344" text-anchor="middle" font-size="12" font-family="Arial">pregnancy_weeks</text>
<text x="202.0" y="262" text-anchor="middle" font-size="12" font-family="Arial">+0.01</text>
<rect x="236" y="40" width="28" height="240" fill="#2563eb" rx="4"/>
<text x="250.0" y="344" text-anchor="middle" font-size="12" font-family="Arial">heavy_bleeding</text>
<text x="250.0" y="32" text-anchor="middle" font-size="12" font-family="Arial">+0.35</text>
<rect x="284" y="40" width="28" height="240" fill="#2563eb" rx="4"/>
<text x="298.0" y="344" text-anchor="middle" font-size="12" font-family="Arial">severe_abdominal_pain</text>
<text x="298.0" y="32" text-anchor="middle" font-size="12" font-family="Arial">+0.35</text>
<rect x="332" y="61" width="28" height="219" fill="#2563eb" rx="4"/>
<text x="346.0" y="344" text-anchor="middle" font-size="12" font-family="Arial">blood_pressure</text>
<text x="346.0" y="53" text-anchor="middle" font-size="12" font-family="Arial">+0.32</text>
<rect x="380" y="141" width="28" height="139" fill="#2563eb" rx="4"/>
<text x="394.0" y="344" text-anchor="middle" font-size="12" font-family="Arial">body_temperature</text>
<text x="394.0" y="133" text-anchor="middle" font-size="12" font-family="Arial">+0.20</text>
<rect x="428" y="280" width="28" height="0" fill="#2563eb" rx="4"/>
<text x="442.0" y="344" text-anchor="middle" font-size="12" font-family="Arial">fetal_movement</text>
<text x="442.0" y="272" text-anchor="middle" font-size="12" font-family="Arial">+0.00</text>
<rect x="476" y="280" width="28" height="0" fill="#2563eb" rx="4"/>
<text x="490.0" y="344" text-anchor="middle" font-size="12" font-family="Arial">consciousness</text>
<text x="490.0" y="272" text-anchor="middle" font-size="12" font-family="Arial">+0.00</text>
</svg>