<svg xmlns="http://www.w3.org/2000/svg" width="700" height="360" viewBox="0 0 700 360">
<rect width="100%" height="100%" fill="white"/>
<text x="350.0" y="24" text-anchor="middle" font-size="18" font-family="Arial" font-weight="bold">Waterfall-style Contribution</text>
<rect x="140" y="229" width="28" height="51" fill="#2563eb" rx="4"/>
<text x="154.0" y="344" text-anchor="middle" font-size="12" font-family="Arial">age</text>
<text x="154.0" y="221" text-anchor="middle" font-size="12" font-family="Arial">+0.07</text>
<rect x="188" y="198" width="28" height="82" fill="#2563eb" rx="4"/>
<text x="202.0" y="344" text-anchor="middle" font-size="12" font-family="Arial">pregnancy_weeks</text>
<text x="202.0" y="190" text-anchor="middle" font-size="12" font-family="Arial">+0.12</text>
<rect x="236" y="40" width="28" height="240" fill="#2563eb" rx="4"/>
<text x="250.0" y="344" text-anchor="middle" font-size="12" font-family="Arial">heavy_bleeding</text>
<text x="250.0" y="32" text-anchor="middle" font-size="12" font-family="Arial">+0.35</text>
<rect x="284" y="280" width="28" height="0" fill="#2563eb" rx="4"/>
<text x="298.0" y="344" text-anchor="middle" font-size="12" font-family="Arial">severe_abdominal_pain</text>
<text x="298.0" y="272" text-anchor="middle" font-size="12" font-family="Arial">+0.00</text>
<rect x="332" y="88" width="28" height="192" fill="#2563eb" rx="4"/>
<text x="346.0" y="344" text-anchor="middle" font-size="12" font-family="Arial">blood_pressure</text>
<text x="346.0" y="80" text-anchor="middle" font-size="12" font-family="Arial">+0.28</text>
<rect x="380" y="231" width="28" height="49" fill="#2563eb" rx="4"/>
<text x="394.0" y="344" text-anchor="middle" font-size="12" font-family="Arial">body_temperature</text>
<text x="394.0" y="223" text-anchor="middle" font-size="12" font-family="Arial">+0.07</text>
<rect x="428" y="280" width="28" height="0" fill="#2563eb" rx="4"/>
<text x="442.0" y="344" text-anchor="middle" font-size="12" font-family="Arial">fetal_movement</text>
<text x="442.0" y="272" text-anchor="middle" font-size="12" font-family="Arial">+0.00</text>
<rect x="476" y="160" width="28" height="120" fill="#2563eb" rx="4"/>
<text x="490.0" y="344" text-anchor="middle" font-size="12" font-family="Arial">consciousness</text>
<text x="490.0" y="152" text-anchor="middle" font-size="12" font-family="Arial">+0.17</text>
</svg>