<svg xmlns="http://www.w3.org/2000/svg" width="700" height="360" viewBox="0 0 700 360">
<rect width="100%" height="100%" fill="white"/>
<text x="350.0" y="24" text-anchor="middle" font-size="18" font-family="Arial" font-weight="bold">Waterfall-style Contribution</text>
<rect x="160" y="237" width="24" height="43" fill="#2563eb" rx="4"/>
<text x="172.0" y="344" text-anchor="middle" font-size="12" font-family="Arial">age</text>
<text x="172.0" y="229" text-anchor="middle" font-size="12" font-family="Arial">+0.11</text>
<rect x="204" y="40" width="24" height="240" fill="#2563eb" rx="4"/>
<text x="216.0" y="344" text-anchor="middle" font-size="12" font-family="Arial">height_cm</text>
<text x="216.0" y="32" text-anchor="middle" font-size="12" font-family="Arial">+0.62</text>
<rect x="248" y="182" width="24" height="98" fill="#2563eb" rx="4"/>
<text x="260.0" y="344" text-anchor="middle" font-size="12" font-family="Arial">weight_kg</text>
<text x="260.0" y="174" text-anchor="middle" font-size="12" font-family="Arial">+0.26</text>
<rect x="292" y="261" width="24" height="19" fill="#2563eb" rx="4"/>
<text x="304.0" y="344" text-anchor="middle" font-size="12" font-family="Arial">bmi</text>
<text x="304.0" y="253" text-anchor="middle" font-size="12" font-family="Arial">+0.05</text>
<rect x="336" y="237" width="24" height="43" fill="#2563eb" rx="4"/>
<text x="348.0" y="344" text-anchor="middle" font-size="12" font-family="Arial">pregnancy_weeks</text>
<text x="348.0" y="229" text-anchor="middle" font-size="12" font-family="Arial">+0.11</text>
<rect x="380" y="278" width="24" height="2" fill="#2563eb" rx="4"/>
<text x="392.0" y="344" text-anchor="middle" font-size="12" font-family="Arial">gravida</text>
<text x="392.0" y="270" text-anchor="middle" font-size="12" font-family="Arial">+0.01</text>
<rect x="424" y="279" width="24" height="1" fill="#2563eb" rx="4"/>
<text x="436.0" y="344" text-anchor="middle" font-size="12" font-family="Arial">parity</text>
<text x="436.0" y="271" text-anchor="middle" font-size="12" font-family="Arial">+0.00</text>
<rect x="468" y="280" width="24" height="0" fill="#2563eb" rx="4"/>
<text x="480.0" y="344" text-anchor="middle" font-size="12" font-family="Arial">previous_c_section</text>
<text x="480.0" y="272" text-anchor="middle" font-size="12" font-family="Arial">+0.00</text>
<rect x="512" y="145" width="24" height="135" fill="#2563eb" rx="4"/>
<text x="524.0" y="344" text-anchor="middle" font-size="12" font-family="Arial">heavy_bleeding</text>
<text x="524.0" y="137" text-anchor="middle" font-size="12" font-family="Arial">+0.35</text>
<rect x="556" y="145" width="24" height="135" fill="#2563eb" rx="4"/>
<text x="568.0" y="344" text-anchor="middle" font-size="12" font-family="Arial">severe_abdominal_pain</text>
<text x="568.0" y="137" text-anchor="middle" font-size="12" font-family="Arial">+0.35</text>
<rect x="600" y="207" width="24" height="73" fill="#2563eb" rx="4"/>
<text x="612.0" y="344" text-anchor="middle" font-size="12" font-family="Arial">blood_pressure</text>
<text x="612.0" y="199" text-anchor="middle" font-size="12" font-family="Arial">+0.19</text>
<rect x="644" y="251" width="24" height="29" fill="#2563eb" rx="4"/>
<text x="656.0" y="344" text-anchor="middle" font-size="12" font-family="Arial">body_temperature</text>
<text x="656.0" y="243" text-anchor="middle" font-size="12" font-family="Arial">+0.08</text>
<rect x="688" y="213" width="24" height="67" fill="#2563eb" rx="4"/>
<text x="700.0" y="344" text-anchor="middle" font-size="12" font-family="Arial">fetal_movement</text>
<text x="700.0" y="205" text-anchor="middle" font-size="12" font-family="Arial">+0.17</text>
<rect x="732" y="213" width="24" height="67" fill="#2563eb" rx="4"/>
<text x="744.0" y="344" text-anchor="middle" font-size="12" font-family="Arial">consciousness</text>
<text x="744.0" y="205" text-anchor="middle" font-size="12" font-family="Arial">+0.17</text>
</svg>