<svg xmlns="http://www.w3.org/2000/svg" width="700" height="360" viewBox="0 0 700 360">
<rect width="100%" height="100%" fill="white"/>
<text x="350.0" y="24" text-anchor="middle" font-size="18" font-family="Arial" font-weight="bold">Waterfall-style Contribution</text>
<rect x="160" y="231" width="24" height="49" fill="#2563eb" rx="4"/>
<text x="172.0" y="344" text-anchor="middle" font-size="12" font-family="Arial">age</text>
<text x="172.0" y="223" text-anchor="middle" font-size="12" font-family="Arial">+0.12</text>
<rect x="204" y="40" width="24" height="240" fill="#2563eb" rx="4"/>
<text x="216.0" y="344" text-anchor="middle" font-size="12" font-family="Arial">height_cm</text>
<text x="216.0" y="32" text-anchor="middle" font-size="12" font-family="Arial">+0.58</text>
<rect x="248" y="188" width="24" height="92" fill="#2563eb" rx="4"/>
<text x="260.0" y="344" text-anchor="middle" font-size="12" font-family="Arial">weight_kg</text>
<text x="260.0" y="180" text-anchor="middle" font-size="12" font-family="Arial">+0.23</text>
<rect x="292" y="260" width="24" height="20" fill="#2563eb" rx="4"/>
<text x="304.0" y="344" text-anchor="middle" font-size="12" font-family="Arial">bmi</text>
<text x="304.0" y="252" text-anchor="middle" font-size="12" font-family="Arial">+0.05</text>
<rect x="336" y="233" width="24" height="47" fill="#2563eb" rx="4"/>
<text x="348.0" y="344" text-anchor="middle" font-size="12" font-family="Arial">pregnancy_weeks</text>
<text x="348.0" y="225" text-anchor="middle" font-size="12" font-family="Arial">+0.12</text>
<rect x="380" y="278" width="24" height="2" fill="#2563eb" rx="4"/>
<text x="392.0" y="344" text-anchor="middle" font-size="12" font-family="Arial">gravida</text>
<text x="392.0" y="270" text-anchor="middle" font-size="12" font-family="Arial">+0.01</text>
<rect x="424" y="279" width="24" height="1" fill="#2563eb" rx="4"/>
<text x="436.0" y="344" text-anchor="middle" font-size="12" font-family="Arial">parity</text>
<text x="436.0" y="271" text-anchor="middle" font-size="12" font-family="Arial">+0.00</text>
<rect x="468" y="136" width="24" height="144" fill="#2563eb" rx="4"/>
<text x="480.0" y="344" text-anchor="middle" font-size="12" font-family="Arial">previous_c_section</text>
<text x="480.0" y="128" text-anchor="middle" font-size="12" font-family="Arial">+0.35</text>
<rect x="512" y="280" width="24" height="0" fill="#2563eb" rx="4"/>
<text x="524.0" y="344" text-anchor="middle" font-size="12" font-family="Arial">heavy_vaginal_bleeding</text>
<text x="524.0" y="272" text-anchor="middle" font-size="12" font-family="Arial">+0.00</text>
<rect x="556" y="280" width="24" height="0" fill="#2563eb" rx="4"/>
<text x="568.0" y="344" text-anchor="middle" font-size="12" font-family="Arial">bleeding_severity</text>
<text x="568.0" y="272" text-anchor="middle" font-size="12" font-family="Arial">+0.00</text>
<rect x="600" y="136" width="24" height="144" fill="#2563eb" rx="4"/>
<text x="612.0" y="344" text-anchor="middle" font-size="12" font-family="Arial">abdominal_pain</text>
<text x="612.0" y="128" text-anchor="middle" font-size="12" font-family="Arial">+0.35</text>
<rect x="644" y="179" width="24" height="101" fill="#2563eb" rx="4"/>
<text x="656.0" y="344" text-anchor="middle" font-size="12" font-family="Arial">pain_score</text>
<text x="656.0" y="171" text-anchor="middle" font-size="12" font-family="Arial">+0.24</text>
<rect x="688" y="280" width="24" height="0" fill="#2563eb" rx="4"/>
<text x="700.0" y="344" text-anchor="middle" font-size="12" font-family="Arial">fetal_movement</text>
<text x="700.0" y="272" text-anchor="middle" font-size="12" font-family="Arial">+0.00</text>
<rect x="732" y="280" width="24" height="0" fill="#2563eb" rx="4"/>
<text x="744.0" y="344" text-anchor="middle" font-size="12" font-family="Arial">loss_of_consciousness</text>
<text x="744.0" y="272" text-anchor="middle" font-size="12" font-family="Arial">+0.00</text>
<rect x="776" y="136" width="24" height="144" fill="#2563eb" rx="4"/>
<text x="788.0" y="344" text-anchor="middle" font-size="12" font-family="Arial">convulsions</text>
<text x="788.0" y="128" text-anchor="middle" font-size="12" font-family="Arial">+0.35</text>
<rect x="820" y="136" width="24" height="144" fill="#2563eb" rx="4"/>
<text x="832.0" y="344" text-anchor="middle" font-size="12" font-family="Arial">headache</text>
<text x="832.0" y="128" text-anchor="middle" font-size="12" font-family="Arial">+0.35</text>
<rect x="864" y="136" width="24" height="144" fill="#2563eb" rx="4"/>
<text x="876.0" y="344" text-anchor="middle" font-size="12" font-family="Arial">blurred_vision</text>
<text x="876.0" y="128" text-anchor="middle" font-size="12" font-family="Arial">+0.35</text>
<rect x="908" y="280" width="24" height="0" fill="#2563eb" rx="4"/>
<text x="920.0" y="344" text-anchor="middle" font-size="12" font-family="Arial">difficulty_breathing</text>
<text x="920.0" y="272" text-anchor="middle" font-size="12" font-family="Arial">+0.00</text>
<rect x="952" y="136" width="24" height="144" fill="#2563eb" rx="4"/>
<text x="964.0" y="344" text-anchor="middle" font-size="12" font-family="Arial">chest_pain</text>
<text x="964.0" y="128" text-anchor="middle" font-size="12" font-family="Arial">+0.35</text>
<rect x="996" y="136" width="24" height="144" fill="#2563eb" rx="4"/>
<text x="1008.0" y="344" text-anchor="middle" font-size="12" font-family="Arial">vomiting</text>
<text x="1008.0" y="128" text-anchor="middle" font-size="12" font-family="Arial">+0.35</text>
<rect x="1040" y="175" width="24" height="105" fill="#2563eb" rx="4"/>
<text x="1052.0" y="344" text-anchor="middle" font-size="12" font-family="Arial">systolic_bp</text>
<text x="1052.0" y="167" text-anchor="middle" font-size="12" font-family="Arial">+0.26</text>
<rect x="1084" y="210" width="24" height="70" fill="#2563eb" rx="4"/>
<text x="1096.0" y="344" text-anchor="middle" font-size="12" font-family="Arial">diastolic_bp</text>
<text x="1096.0" y="202" text-anchor="middle" font-size="12" font-family="Arial">+0.17</text>
<rect x="1128" y="223" width="24" height="57" fill="#2563eb" rx="4"/>
<text x="1140.0" y="344" text-anchor="middle" font-size="12" font-family="Arial">heart_rate</text>
<text x="1140.0" y="215" text-anchor="middle" font-size="12" font-family="Arial">+0.14</text>
<rect x="1172" y="266" width="24" height="14" fill="#2563eb" rx="4"/>
<text x="1184.0" y="344" text-anchor="middle" font-size="12" font-family="Arial">respiratory_rate</text>
<text x="1184.0" y="258" text-anchor="middle" font-size="12" font-family="Arial">+0.03</text>
<rect x="1216" y="251" width="24" height="29" fill="#2563eb" rx="4"/>
<text x="1228.0" y="344" text-anchor="middle" font-size="12" font-family="Arial">body_temperature</text>
<text x="1228.0" y="243" text-anchor="middle" font-size="12" font-family="Arial">+0.07</text>
<rect x="1260" y="278" width="24" height="2" fill="#2563eb" rx="4"/>
<text x="1272.0" y="344" text-anchor="middle" font-size="12" font-family="Arial">spo2</text>
<text x="1272.0" y="270" text-anchor="middle" font-size="12" font-family="Arial">+0.01</text>
<rect x="1304" y="204" width="24" height="76" fill="#2563eb" rx="4"/>
<text x="1316.0" y="344" text-anchor="middle" font-size="12" font-family="Arial">blood_sugar</text>
<text x="1316.0" y="196" text-anchor="middle" font-size="12" font-family="Arial">+0.18</text>
</svg>